<svg width="22" height="22" viewBox="0 0 22 22" fill="none" xmlns="http://www.w3.org/2000/svg">
<path d="M20.1667 7.79165C20.1667 10.78 17.9667 13.2458 15.1067 13.6766V13.6216C14.8225 10.065 11.935 7.17748 8.35086 6.89331H8.32336C8.7542 4.03331 11.22 1.83331 14.2084 1.83331C17.4992 1.83331 20.1667 4.50081 20.1667 7.79165Z" fill="white"/>
<path d="M13.7317 13.7317C13.5025 10.8258 11.1742 8.4975 8.26837 8.26833C8.11254 8.25917 7.94754 8.25 7.79171 8.25C4.50087 8.25 1.83337 10.9175 1.83337 14.2083C1.83337 17.4992 4.50087 20.1667 7.79171 20.1667C11.0825 20.1667 13.75 17.4992 13.75 14.2083C13.75 14.0525 13.7409 13.8875 13.7317 13.7317ZM8.59837 15.015L7.79171 16.5L6.98504 15.015L5.50004 14.2083L6.98504 13.4017L7.79171 11.9167L8.59837 13.4017L10.0834 14.2083L8.59837 15.015Z" fill="white"/>
</svg>
