<svg width="10" height="10" viewBox="0 0 10 10" fill="none" xmlns="http://www.w3.org/2000/svg">
<path fill-rule="evenodd" clip-rule="evenodd" d="M5 9.5C7.48528 9.5 9.5 7.48528 9.5 5C9.5 4.0833 9.22589 3.23062 8.75517 2.51945L5.17751 6.49463C4.83118 6.87945 4.2484 6.9363 3.83422 6.62567L2.2 5.4C1.97909 5.23431 1.93431 4.92091 2.1 4.7C2.26569 4.47909 2.57909 4.43431 2.8 4.6L4.43422 5.82566L8.10702 1.74478C7.29928 0.973586 6.20495 0.5 5 0.5C2.51472 0.5 0.5 2.51472 0.5 5C0.5 7.48528 2.51472 9.5 5 9.5Z" fill="#84818A"/>
</svg>
