<svg width="56" height="56" viewBox="0 0 56 56" fill="none" xmlns="http://www.w3.org/2000/svg">
<circle cx="28" cy="28" r="28" fill="white"/>
<path fill-rule="evenodd" clip-rule="evenodd" d="M21.7737 14.6672H34.2257C38.7603 14.6672 41.3203 17.2392 41.3337 21.7739V34.2272C41.3337 38.7606 38.7603 41.3339 34.2257 41.3339H21.7737C17.239 41.3339 14.667 38.7606 14.667 34.2272V21.7739C14.667 17.2392 17.239 14.6672 21.7737 14.6672ZM28.0657 35.8139C28.6404 35.8139 29.119 35.3872 29.1724 34.8139V21.2272C29.2257 20.8139 29.027 20.3992 28.667 20.1739C28.2924 19.9472 27.839 19.9472 27.4804 20.1739C27.119 20.3992 26.9204 20.8139 26.959 21.2272V34.8139C27.027 35.3872 27.5057 35.8139 28.0657 35.8139ZM34.2004 35.8139C34.7604 35.8139 35.239 35.3872 35.307 34.8139V30.4406C35.3457 30.0126 35.147 29.6139 34.7857 29.3872C34.427 29.1606 33.9737 29.1606 33.6004 29.3872C33.239 29.6139 33.0404 30.0126 33.0937 30.4406V34.8139C33.147 35.3872 33.6257 35.8139 34.2004 35.8139ZM22.959 34.8138C22.9056 35.3872 22.427 35.8138 21.8523 35.8138C21.279 35.8138 20.799 35.3872 20.747 34.8138V25.6005C20.707 25.1858 20.9056 24.7738 21.267 24.5472C21.6256 24.3205 22.0803 24.3205 22.4403 24.5472C22.799 24.7738 23.0003 25.1858 22.959 25.6005V34.8138Z" fill="url(#paint0_linear_898_5317)"/>
<defs>
<linearGradient id="paint0_linear_898_5317" x1="14.667" y1="28.0006" x2="41.3337" y2="28.0006" gradientUnits="userSpaceOnUse">
<stop stop-color="#4C348C"/>
<stop offset="1" stop-color="#C732A6"/>
</linearGradient>
</defs>
</svg>
