<svg width="18" height="18" viewBox="0 0 18 18" fill="none" xmlns="http://www.w3.org/2000/svg">
<path fill-rule="evenodd" clip-rule="evenodd" d="M5.6074 0H5.01703C3.56482 0 2.83871 0 2.30404 0.403303C1.76937 0.806605 1.56989 1.50478 1.17094 2.90112L0.571255 5H4.6699L5.6074 0ZM0.117188 6.92418C0.119486 6.94086 0.122337 6.95744 0.125756 6.97399C0.17548 7.21469 0.33779 7.41307 0.662411 7.80983L0.662414 7.80983L6.40831 14.8326L4.69493 7H0.499827C0.364292 7 0.235055 6.97304 0.117188 6.92418ZM11.5913 14.8326L17.3372 7.80983C17.6619 7.41307 17.8242 7.21469 17.8739 6.97399C17.8773 6.95744 17.8802 6.94086 17.8825 6.92418C17.7646 6.97304 17.6354 7 17.4998 7H13.3047L11.5913 14.8326ZM17.4284 5L16.8287 2.90112C16.4298 1.50478 16.2303 0.806605 15.6956 0.403303C15.1609 0 14.4348 0 12.9826 0H12.3923L13.3298 5H17.4284ZM10.3574 0H7.64225L6.70475 5H11.2949L10.3574 0ZM8.99983 17.3205L6.74222 7H11.2574L8.99983 17.3205Z" fill="white"/>
</svg>
