<svg width="20" height="21" viewBox="0 0 20 21" fill="none" xmlns="http://www.w3.org/2000/svg">
<mask id="mask0_881_4659" style="mask-type:alpha" maskUnits="userSpaceOnUse" x="0" y="0" width="20" height="21">
<rect y="0.5" width="20" height="20" fill="#D9D9D9"/>
</mask>
<g mask="url(#mask0_881_4659)">
<path d="M9.9987 13.4798C9.88759 13.4798 9.78342 13.4623 9.6862 13.4273C9.58897 13.3929 9.4987 13.334 9.41536 13.2507L6.41536 10.2507C6.26259 10.0979 6.1862 9.90343 6.1862 9.66732C6.1862 9.43121 6.26259 9.23676 6.41536 9.08398C6.56814 8.93121 6.76592 8.85121 7.0087 8.84398C7.25203 8.83732 7.45009 8.91037 7.60286 9.06315L9.16536 10.6256V4.66732C9.16536 4.43121 9.24536 4.23315 9.40536 4.07315C9.56481 3.91371 9.76259 3.83398 9.9987 3.83398C10.2348 3.83398 10.4329 3.91371 10.5929 4.07315C10.7523 4.23315 10.832 4.43121 10.832 4.66732V10.6256L12.3945 9.06315C12.5473 8.91037 12.7454 8.83732 12.9887 8.84398C13.2315 8.85121 13.4293 8.93121 13.582 9.08398C13.7348 9.23676 13.8112 9.43121 13.8112 9.66732C13.8112 9.90343 13.7348 10.0979 13.582 10.2507L10.582 13.2507C10.4987 13.334 10.4084 13.3929 10.3112 13.4273C10.214 13.4623 10.1098 13.4798 9.9987 13.4798ZM4.9987 17.1673C4.54036 17.1673 4.14814 17.0043 3.82203 16.6782C3.49536 16.3515 3.33203 15.959 3.33203 15.5007V13.834C3.33203 13.5979 3.41175 13.3998 3.5712 13.2398C3.7312 13.0804 3.92925 13.0007 4.16536 13.0007C4.40148 13.0007 4.59953 13.0804 4.75953 13.2398C4.91898 13.3998 4.9987 13.5979 4.9987 13.834V15.5007H14.9987V13.834C14.9987 13.5979 15.0787 13.3998 15.2387 13.2398C15.3981 13.0804 15.5959 13.0007 15.832 13.0007C16.0681 13.0007 16.2659 13.0804 16.4254 13.2398C16.5854 13.3998 16.6654 13.5979 16.6654 13.834V15.5007C16.6654 15.959 16.5023 16.3515 16.1762 16.6782C15.8495 17.0043 15.457 17.1673 14.9987 17.1673H4.9987Z" fill="white"/>
</g>
</svg>
