<svg width="14" height="12" viewBox="0 0 14 12" fill="none" xmlns="http://www.w3.org/2000/svg">
<path d="M3.44394 1.44194C3.68801 1.19786 3.68801 0.802136 3.44394 0.558058C3.19986 0.313981 2.80413 0.313981 2.56005 0.558058L0.893385 2.22472C0.649308 2.4688 0.649308 2.86453 0.893385 3.10861L2.56005 4.77528C2.80413 5.01935 3.19986 5.01935 3.44394 4.77528C3.68801 4.5312 3.68801 4.13547 3.44394 3.89139L2.84421 3.29167H11.3353C11.6805 3.29167 11.9603 3.01184 11.9603 2.66667C11.9603 2.32149 11.6805 2.04167 11.3353 2.04167H2.84421L3.44394 1.44194Z" fill="white"/>
<path d="M10.8934 7.22473C10.6493 7.4688 10.6493 7.86453 10.8934 8.10861L11.4931 8.70833H3.00199C2.65682 8.70833 2.37699 8.98816 2.37699 9.33333C2.37699 9.67851 2.65682 9.95833 3.00199 9.95833H11.4931L10.8934 10.5581C10.6493 10.8021 10.6493 11.1979 10.8934 11.4419C11.1375 11.686 11.5332 11.686 11.7773 11.4419L13.4439 9.77528C13.688 9.5312 13.688 9.13547 13.4439 8.89139L11.7773 7.22473C11.5332 6.98065 11.1375 6.98065 10.8934 7.22473Z" fill="white"/>
</svg>
