<svg width="17" height="17" viewBox="0 0 17 17" fill="none" xmlns="http://www.w3.org/2000/svg">
<path fill-rule="evenodd" clip-rule="evenodd" d="M1.95752 8.81228C1.95752 5.3282 4.78193 2.50378 8.26602 2.50378C11.7501 2.50378 14.5745 5.3282 14.5745 8.81228C14.5745 12.2964 11.7501 15.1208 8.26602 15.1208C7.57432 15.1208 6.90801 15.0093 6.28444 14.8032L4.3867 15.4358C4.28545 15.4695 4.17415 15.4525 4.08756 15.3901C4.00098 15.3277 3.94968 15.2275 3.94968 15.1208V13.413C2.72392 12.2626 1.95752 10.6267 1.95752 8.81228ZM10.1099 10.1654L11.8696 7.56268C12.0438 7.30631 11.7135 7.02765 11.4612 7.21157L9.56333 8.54915C9.50095 8.59257 9.42508 8.61603 9.34711 8.61603C9.26914 8.61603 9.19327 8.59257 9.13089 8.54915L7.72548 7.56826C7.30505 7.27845 6.70445 7.38434 6.42216 7.79119L4.66239 10.3939C4.48822 10.6503 4.81855 10.9289 5.0708 10.745L6.96871 9.40744C7.03109 9.36403 7.10696 9.34056 7.18493 9.34056C7.2629 9.34056 7.33877 9.36403 7.40115 9.40744L8.80656 10.3716C9.22699 10.6781 9.82759 10.5723 10.1099 10.1654Z" fill="white"/>
</svg>
