<svg width="15" height="15" viewBox="0 0 15 15" fill="none" xmlns="http://www.w3.org/2000/svg">
<g clip-path="url(#clip0_898_5376)">
<path d="M14.3137 7.20897C14.3137 3.28527 11.1329 0.104492 7.20921 0.104492C3.28552 0.104492 0.104736 3.28527 0.104736 7.20897C0.104736 10.755 2.70273 13.6942 6.09914 14.2271V9.26261H4.29527V7.20897H6.09914V5.64377C6.09914 3.86321 7.15982 2.87968 8.78261 2.87968C9.55966 2.87968 10.3729 3.01844 10.3729 3.01844V4.76681H9.4771C8.59459 4.76681 8.31929 5.31449 8.31929 5.87688V7.20897H10.2897L9.97469 9.26261H8.31929V14.2271C11.7157 13.6942 14.3137 10.755 14.3137 7.20897Z" fill="white"/>
<path d="M9.97483 9.26257L10.2898 7.20893H8.31943V5.87684C8.31943 5.315 8.59473 4.76677 9.47724 4.76677H10.3731V3.0184C10.3731 3.0184 9.56008 2.87964 8.78275 2.87964C7.15996 2.87964 6.09928 3.86316 6.09928 5.64372V7.20893H4.29541V9.26257H6.09928V14.2271C6.83486 14.3422 7.58385 14.3422 8.31943 14.2271V9.26257H9.97483Z" fill="#90339A"/>
</g>
<defs>
<clipPath id="clip0_898_5376">
<rect width="14.209" height="14.209" fill="white" transform="translate(0.104492 0.104492)"/>
</clipPath>
</defs>
</svg>
