<svg width="24" height="24" viewBox="0 0 24 24" fill="none" xmlns="http://www.w3.org/2000/svg">
<path opacity="0.3" fill-rule="evenodd" clip-rule="evenodd" d="M6.23942 9.18198C4.95224 7.8948 3.20777 7.34364 1.52896 7.52848C1.34547 9.19494 1.88721 10.9261 3.15417 12.2105C1.88721 13.4948 1.34547 15.226 1.52896 16.8924C3.20777 17.0773 4.95224 16.5261 6.23942 15.2389C6.63801 14.8404 6.96602 14.3979 7.22346 13.9272C7.44695 13.9285 7.67051 13.9169 7.89292 13.8924C7.95456 13.3326 7.93436 12.7655 7.83231 12.2105C7.93436 11.6554 7.95456 11.0883 7.89292 10.5285C7.67051 10.504 7.44696 10.4924 7.22346 10.4938C6.96602 10.023 6.63801 9.58057 6.23942 9.18198Z" fill="white"/>
<path fill-rule="evenodd" clip-rule="evenodd" d="M23.4094 12.5952C21.2113 9.14928 17.8134 6 14.0001 6C10.1868 6 6.78887 9.14928 4.59082 12.5952C6.78887 15.8507 10.1868 19 14.0001 19C17.8134 19 21.2113 15.8507 23.4094 12.5952ZM21.0001 12C21.0001 12.5523 20.5524 13 20.0001 13C19.4478 13 19.0001 12.5523 19.0001 12C19.0001 11.4477 19.4478 11 20.0001 11C20.5524 11 21.0001 11.4477 21.0001 12Z" fill="white"/>
</svg>
