<svg width="16" height="16" viewBox="0 0 16 16" fill="none" xmlns="http://www.w3.org/2000/svg">
<path fill-rule="evenodd" clip-rule="evenodd" d="M10.3333 2.08337C10.8396 2.08337 11.25 2.49378 11.25 3.00004C11.25 3.5063 10.8396 3.91671 10.3333 3.91671H9.00802L9.35061 2.77476C9.47372 2.3644 9.85142 2.08337 10.2798 2.08337H10.3333ZM12.75 3.00004C12.75 3.3245 12.6861 3.63403 12.5701 3.91671H13C13.9665 3.91671 14.75 4.70021 14.75 5.66671V6.33337C14.75 7.15629 14.182 7.84654 13.4167 8.03347L13.4167 12C13.4167 13.5188 12.1854 14.75 10.6667 14.75L8.00121 14.75C8.00081 14.75 8.0004 14.75 8 14.75C7.9996 14.75 7.99919 14.75 7.99879 14.75H5.33333C3.81455 14.75 2.58333 13.5188 2.58333 12L2.58333 8.03347C1.818 7.84654 1.25 7.15629 1.25 6.33337V5.66671C1.25 4.70021 2.0335 3.91671 3 3.91671L3.42991 3.91671C3.31394 3.63403 3.25 3.3245 3.25 3.00004C3.25 1.66535 4.33198 0.583374 5.66667 0.583374H5.72015C6.72485 0.583374 7.61999 1.19035 8 2.10256C8.38001 1.19035 9.27515 0.583374 10.2798 0.583374H10.3333C11.668 0.583374 12.75 1.66535 12.75 3.00004ZM3.33333 6.58337L7.25 6.58337V5.41671H5.66667L3 5.41671C2.86193 5.41671 2.75 5.52864 2.75 5.66671V6.33337C2.75 6.47145 2.86193 6.58337 3 6.58337H3.33333ZM8.75 6.58337H12.6667H13C13.1381 6.58337 13.25 6.47145 13.25 6.33337V5.66671C13.25 5.52864 13.1381 5.41671 13 5.41671H10.3333H8.75V6.58337ZM4.08333 8.08337L4.08333 12C4.08333 12.6904 4.64298 13.25 5.33333 13.25H7.25L7.25 8.08337H4.08333ZM8.75 8.08337L8.75 13.25L10.6667 13.25C11.357 13.25 11.9167 12.6904 11.9167 12L11.9167 8.08337H8.75ZM6.99198 3.91671L6.64939 2.77476C6.52628 2.3644 6.14858 2.08337 5.72015 2.08337H5.66667C5.16041 2.08337 4.75 2.49378 4.75 3.00004C4.75 3.5063 5.16041 3.91671 5.66667 3.91671H6.99198Z" fill="white"/>
</svg>
