<svg width="36" height="36" viewBox="0 0 36 36" fill="none" xmlns="http://www.w3.org/2000/svg">
<g clip-path="url(#clip0_1238_7361)">
<path d="M9.3525 9.6795C7.44006 11.6644 6.26925 14.2472 6.03686 16.9937C5.80446 19.7403 6.52466 22.4831 8.07639 24.7611C9.62811 27.0392 11.9168 28.7136 14.5577 29.5029C17.1986 30.2923 20.0307 30.1484 22.578 29.0955C22.7505 27.9705 22.3725 26.8905 22.218 26.5125C21.873 25.6725 20.736 24.237 18.8385 22.2465C18.3315 21.714 18.3645 21.3045 18.546 20.091L18.5655 19.9545C18.6885 19.1235 18.8955 18.6315 21.693 18.1875C23.115 17.9625 23.4885 18.5295 24.006 19.317L24.18 19.575C24.672 20.295 25.0365 20.46 25.587 20.709C25.8345 20.8215 26.142 20.964 26.5545 21.1965C27.5325 21.756 27.5325 22.3875 27.5325 23.7705V23.928C27.5325 24.5145 27.4755 25.0305 27.3855 25.479C28.5365 24.0344 29.3387 22.3436 29.7294 20.5383C30.1201 18.733 30.0889 16.8618 29.6382 15.0705C29.1875 13.2793 28.3295 11.6162 27.131 10.2107C25.9324 8.80526 24.4256 7.69539 22.728 6.9675C21.8985 7.527 20.76 8.3205 20.3625 8.865C20.16 9.1425 19.872 10.563 18.9375 10.68C18.6945 10.71 18.366 10.689 18.018 10.6665C17.085 10.6065 15.81 10.524 15.402 11.6325C15.1425 12.3345 15.0975 14.2425 15.936 15.2325C16.071 15.39 16.0965 15.6825 16.005 16.011C15.885 16.4415 15.6435 16.704 15.567 16.758C15.423 16.674 15.135 16.3395 14.9385 16.113C14.469 15.5655 13.881 14.883 13.122 14.673C12.846 14.5965 12.543 14.5335 12.2475 14.4705C11.424 14.298 10.4925 14.1015 10.275 13.6395C10.116 13.3005 10.1175 12.834 10.1175 12.342C10.1175 11.7165 10.1175 11.01 9.8115 10.3245C9.70512 10.0799 9.54878 9.86016 9.3525 9.6795ZM18 33C9.7155 33 3 26.2845 3 18C3 9.7155 9.7155 3 18 3C26.2845 3 33 9.7155 33 18C33 26.2845 26.2845 33 18 33Z" fill="white"/>
</g>
<defs>
<clipPath id="clip0_1238_7361">
<rect width="36" height="36" fill="white"/>
</clipPath>
</defs>
</svg>
