<?xml version="1.0" encoding="utf-8"?>
<!-- Generator: Adobe Illustrator 26.0.1, SVG Export Plug-In . SVG Version: 6.00 Build 0)  -->
<svg version="1.1" id="Layer_1" xmlns="http://www.w3.org/2000/svg" xmlns:xlink="http://www.w3.org/1999/xlink" x="0px" y="0px"
	 viewBox="0 0 14 12" style="enable-background:new 0 0 14 12;" xml:space="preserve">
<style type="text/css">
	.st0{fill:none;stroke:#FFFFFF;stroke-width:1.3333;stroke-linecap:round;stroke-linejoin:round;}
</style>
<path class="st0" d="M1.9,1.8C1.6,2,1.4,2.4,1.2,2.7C1.1,3.1,1,3.5,1,3.9S1.1,4.7,1.2,5c0.2,0.4,0.4,0.7,0.7,1L7,11.1L12.1,6
	C12.7,5.4,13,4.7,13,3.9c0-0.8-0.3-1.6-0.9-2.1c-0.6-0.6-1.3-0.9-2.1-0.9c-0.8,0-1.6,0.3-2.1,0.9L7,2.6L6.1,1.8
	c-0.3-0.3-0.6-0.5-1-0.7C4.8,1,4.4,0.9,4,0.9C3.6,0.9,3.2,1,2.9,1.1C2.5,1.3,2.2,1.5,1.9,1.8L1.9,1.8z"/>
</svg>
