<svg width="20" height="19" viewBox="0 0 20 19" fill="none" xmlns="http://www.w3.org/2000/svg">
<path d="M7.57508 7.1C7.771 6.54305 8.15771 6.07342 8.66671 5.77427C9.17571 5.47513 9.77416 5.36578 10.3561 5.46559C10.938 5.5654 11.4658 5.86793 11.846 6.3196C12.2262 6.77127 12.4343 7.34293 12.4334 7.93333C12.4334 9.6 9.93341 10.4333 9.93341 10.4333M10.0001 13.7667H10.0084M18.3334 9.6C18.3334 14.2024 14.6025 17.9333 10.0001 17.9333C5.39771 17.9333 1.66675 14.2024 1.66675 9.6C1.66675 4.99762 5.39771 1.26666 10.0001 1.26666C14.6025 1.26666 18.3334 4.99762 18.3334 9.6Z" stroke="#777E90" stroke-width="1.66667" stroke-linecap="round" stroke-linejoin="round"/>
</svg>
