<svg width="61" height="60" viewBox="0 0 61 60" fill="none" xmlns="http://www.w3.org/2000/svg">
<path fill-rule="evenodd" clip-rule="evenodd" d="M20.9036 22.5H40.0964C41.4142 22.5 42.5512 22.4999 43.4876 22.5764C44.4759 22.6572 45.459 22.8355 46.4049 23.3175C47.8162 24.0365 48.9635 25.1839 49.6826 26.5951C50.1645 27.541 50.3428 28.5241 50.4236 29.5124C50.5001 30.4488 50.5 31.5859 50.5 32.9036V44.5966C50.5 45.9144 50.5001 47.0512 50.4236 47.9876C50.3428 48.9759 50.1645 49.959 49.6826 50.9049C48.9635 52.3162 47.8162 53.4635 46.4049 54.1826C45.459 54.6645 44.4759 54.8428 43.4876 54.9236C42.5512 55.0001 41.4142 55.0001 40.0963 55H20.9036C19.5858 55.0001 18.4489 55.0001 17.5124 54.9236C16.5241 54.8428 15.541 54.6645 14.5951 54.1826C13.1839 53.4635 12.0365 52.3162 11.3175 50.9049C10.8355 49.959 10.6572 48.9759 10.5764 47.9876C10.4999 47.0512 10.5 45.9142 10.5 44.5964V32.9036C10.5 31.5858 10.4999 30.4488 10.5764 29.5124C10.6572 28.5241 10.8355 27.541 11.3175 26.5951C12.0365 25.1839 13.1839 24.0365 14.5951 23.3175C15.541 22.8355 16.5241 22.6572 17.5124 22.5764C18.4488 22.4999 19.5858 22.5 20.9036 22.5ZM30.5 37.5C29.1193 37.5 28 38.6193 28 40V42.5C28 43.8807 29.1193 45 30.5 45C31.8807 45 33 43.8807 33 42.5V40C33 38.6193 31.8807 37.5 30.5 37.5Z" fill="white"/>
<path fill-rule="evenodd" clip-rule="evenodd" d="M20.5 15C20.5 9.47715 24.9772 5 30.5 5C36.0228 5 40.5 9.47715 40.5 15V22.5H35.5V15C35.5 12.2386 33.2614 10 30.5 10C27.7386 10 25.5 12.2386 25.5 15V22.5H20.5V15Z" fill="white"/>
</svg>
