<svg width="20" height="21" viewBox="0 0 20 21" fill="none" xmlns="http://www.w3.org/2000/svg">
<path fill-rule="evenodd" clip-rule="evenodd" d="M10.8089 12.7005C10.349 12.6832 9.96212 13.0419 9.94476 13.5019C9.90561 14.5387 9.85064 15.2954 9.79659 15.838C9.74336 16.3723 9.42079 16.6938 8.97113 16.7488C8.44093 16.8136 7.69298 16.8666 6.6666 16.8666C5.64019 16.8666 4.89223 16.8136 4.36203 16.7488C3.91261 16.6938 3.58988 16.3722 3.53664 15.8377C3.43631 14.8306 3.33327 13.0906 3.33327 10.2C3.33327 7.30928 3.43631 5.5693 3.53664 4.56219C3.58987 4.02773 3.91261 3.7061 4.36203 3.65116C4.89223 3.58634 5.64019 3.53329 6.6666 3.53329C7.69298 3.53329 8.44093 3.58634 8.97114 3.65115C9.42079 3.70612 9.74336 4.02761 9.79659 4.56194C9.85064 5.1045 9.90561 5.86124 9.94476 6.89806C9.96212 7.35797 10.349 7.71673 10.8089 7.69937C11.2688 7.68201 11.6276 7.2951 11.6102 6.83519C11.5701 5.771 11.5131 4.97948 11.455 4.39672C11.333 3.17158 10.4788 2.15638 9.17337 1.9968C8.56569 1.92252 7.74925 1.86663 6.6666 1.86663C5.58392 1.86663 4.76747 1.92252 4.15979 1.99681C2.85422 2.15641 2.0002 3.17209 1.87818 4.39698C1.77074 5.47553 1.6666 7.27369 1.6666 10.2C1.6666 13.1262 1.77074 14.9244 1.87818 16.0029C2.00019 17.2278 2.85422 18.2435 4.15979 18.4031C4.76747 18.4774 5.58391 18.5333 6.6666 18.5333C7.74925 18.5333 8.56569 18.4774 9.17336 18.4031C10.4788 18.2435 11.333 17.2283 11.455 16.0032C11.5131 15.4204 11.5701 14.6289 11.6102 13.5647C11.6276 13.1048 11.2688 12.7179 10.8089 12.7005Z" fill="#777E91"/>
<path fill-rule="evenodd" clip-rule="evenodd" d="M13.994 12.5274C13.6686 12.8528 13.6686 13.3804 13.994 13.7059C14.3194 14.0313 14.8471 14.0313 15.1725 13.7059L18.0892 10.7892C18.4146 10.4638 18.4146 9.93613 18.0892 9.6107L15.1725 6.69403C14.8471 6.36859 14.3194 6.36859 13.994 6.69403C13.6686 7.01947 13.6686 7.5471 13.994 7.87254L15.4881 9.36662H7.49992C7.03968 9.36662 6.66659 9.73971 6.66659 10.2C6.66659 10.6602 7.03968 11.0333 7.49992 11.0333L15.4881 11.0333L13.994 12.5274Z" fill="#777E91"/>
</svg>
