<svg width="21" height="20" viewBox="0 0 21 20" fill="none" xmlns="http://www.w3.org/2000/svg">
<path d="M18.7491 13.2748C18.6158 13.0498 18.2408 12.6998 17.3074 12.8665C16.7908 12.9581 16.2658 12.9998 15.7408 12.9748C13.7991 12.8915 12.0408 11.9998 10.8158 10.6248C9.73244 9.41648 9.06577 7.84148 9.05744 6.14148C9.05744 5.19148 9.24077 4.27481 9.61577 3.40815C9.98244 2.56648 9.7241 2.12481 9.54077 1.94148C9.3491 1.74981 8.8991 1.48315 8.01577 1.84981C4.60743 3.28315 2.4991 6.69981 2.7491 10.3581C2.9991 13.7998 5.41577 16.7415 8.61577 17.8498C9.38244 18.1165 10.1908 18.2748 11.0241 18.3081C11.1574 18.3165 11.2908 18.3248 11.4241 18.3248C14.2158 18.3248 16.8324 17.0081 18.4824 14.7665C19.0408 13.9915 18.8908 13.4998 18.7491 13.2748Z" fill="white"/>
</svg>
