<svg width="40" height="40" viewBox="0 0 40 40" fill="none" xmlns="http://www.w3.org/2000/svg">
<rect width="40" height="40" rx="7" fill="#27AE60" fill-opacity="0.2"/>
<path d="M19.9998 11.6667C15.4082 11.6667 11.6665 15.4084 11.6665 20C11.6665 24.5917 15.4082 28.3334 19.9998 28.3334C24.5915 28.3334 28.3332 24.5917 28.3332 20C28.3332 15.4084 24.5915 11.6667 19.9998 11.6667ZM23.9832 18.0834L19.2582 22.8084C19.1415 22.925 18.9832 22.9917 18.8165 22.9917C18.6498 22.9917 18.4915 22.925 18.3748 22.8084L16.0165 20.45C15.7748 20.2084 15.7748 19.8084 16.0165 19.5667C16.2582 19.325 16.6582 19.325 16.8998 19.5667L18.8165 21.4834L23.0998 17.2C23.3415 16.9584 23.7415 16.9584 23.9832 17.2C24.2248 17.4417 24.2248 17.8334 23.9832 18.0834Z" fill="#27AE60"/>
</svg>
