<svg width="36" height="36" viewBox="0 0 36 36" fill="none" xmlns="http://www.w3.org/2000/svg">
<g clip-path="url(#clip0_1238_7397)">
<path d="M16.905 18.324L22.5 9L34.5 31.5H3L13.5 12L16.905 18.324ZM18.585 21.357L22.4805 28.5H29.5005L22.3455 15.087L18.585 21.357ZM8.022 28.5H18.978L13.5 18.3285L8.022 28.5ZM8.25 12C7.25544 12 6.30161 11.6049 5.59835 10.9017C4.89509 10.1984 4.5 9.24456 4.5 8.25C4.5 7.25544 4.89509 6.30161 5.59835 5.59835C6.30161 4.89509 7.25544 4.5 8.25 4.5C9.24456 4.5 10.1984 4.89509 10.9017 5.59835C11.6049 6.30161 12 7.25544 12 8.25C12 9.24456 11.6049 10.1984 10.9017 10.9017C10.1984 11.6049 9.24456 12 8.25 12Z" fill="white"/>
</g>
<defs>
<clipPath id="clip0_1238_7397">
<rect width="36" height="36" fill="white"/>
</clipPath>
</defs>
</svg>
