<svg width="28" height="28" viewBox="0 0 28 28" fill="none" xmlns="http://www.w3.org/2000/svg">
<path d="M10.4997 2.33334C7.44301 2.33334 4.95801 4.81834 4.95801 7.87501C4.95801 10.8733 7.30301 13.3 10.3597 13.405C10.453 13.3933 10.5463 13.3933 10.6163 13.405C10.6397 13.405 10.6513 13.405 10.6747 13.405C10.6863 13.405 10.6863 13.405 10.698 13.405C13.6847 13.3 16.0297 10.8733 16.0413 7.87501C16.0413 4.81834 13.5563 2.33334 10.4997 2.33334Z" fill="white"/>
<path d="M16.4271 16.5083C13.1721 14.3383 7.86378 14.3383 4.58544 16.5083C3.10378 17.5 2.28711 18.8417 2.28711 20.2767C2.28711 21.7117 3.10378 23.0417 4.57378 24.0217C6.20711 25.1183 8.35378 25.6667 10.5004 25.6667C12.6471 25.6667 14.7938 25.1183 16.4271 24.0217C17.8971 23.03 18.7138 21.7 18.7138 20.2533C18.7021 18.8183 17.8971 17.4883 16.4271 16.5083Z" fill="white"/>
<path d="M23.3219 8.56334C23.5086 10.8267 21.8986 12.81 19.6702 13.0783C19.6586 13.0783 19.6586 13.0783 19.6469 13.0783H19.6119C19.5419 13.0783 19.4719 13.0783 19.4136 13.1017C18.2819 13.16 17.2436 12.7983 16.4619 12.1333C17.6636 11.06 18.3519 9.45 18.2119 7.7C18.1302 6.755 17.8036 5.89167 17.3136 5.15667C17.7569 4.935 18.2702 4.795 18.7952 4.74834C21.0819 4.55 23.1236 6.25334 23.3219 8.56334Z" fill="white"/>
<path d="M25.6546 19.355C25.5613 20.4867 24.838 21.4667 23.6246 22.1317C22.458 22.7733 20.988 23.0767 19.5296 23.0417C20.3696 22.2833 20.8596 21.3383 20.953 20.335C21.0696 18.8883 20.3813 17.5 19.0046 16.3917C18.223 15.7733 17.313 15.2833 16.3213 14.9217C18.8996 14.175 22.143 14.6767 24.138 16.2867C25.2113 17.15 25.7596 18.235 25.6546 19.355Z" fill="white"/>
</svg>
