<svg width="28" height="28" viewBox="0 0 28 28" fill="none" xmlns="http://www.w3.org/2000/svg">
<path d="M7.78134 16.3333H4.66634C3.38301 16.3333 2.33301 17.3833 2.33301 18.6667V24.5C2.33301 25.1417 2.85801 25.6667 3.49967 25.6667H7.78134C8.42301 25.6667 8.94801 25.1417 8.94801 24.5V17.5C8.94801 16.8583 8.42301 16.3333 7.78134 16.3333Z" fill="white"/>
<path d="M15.5518 11.6667H12.4368C11.1535 11.6667 10.1035 12.7167 10.1035 14V24.5C10.1035 25.1417 10.6285 25.6667 11.2702 25.6667H16.7185C17.3602 25.6667 17.8852 25.1417 17.8852 24.5V14C17.8852 12.7167 16.8468 11.6667 15.5518 11.6667Z" fill="white"/>
<path d="M23.3334 19.8333H20.2184C19.5768 19.8333 19.0518 20.3583 19.0518 21V24.5C19.0518 25.1417 19.5768 25.6667 20.2184 25.6667H24.5001C25.1418 25.6667 25.6668 25.1417 25.6668 24.5V22.1667C25.6668 20.8833 24.6168 19.8333 23.3334 19.8333Z" fill="white"/>
<path d="M17.512 5.65832C17.8737 5.29665 18.0137 4.86499 17.897 4.49165C17.7803 4.11832 17.4187 3.84999 16.9053 3.76832L15.7853 3.58165C15.7387 3.58165 15.6337 3.49999 15.6103 3.45332L14.992 2.21665C14.5253 1.27165 13.4637 1.27165 12.997 2.21665L12.3787 3.45332C12.367 3.49999 12.262 3.58165 12.2153 3.58165L11.0953 3.76832C10.582 3.84999 10.232 4.11832 10.1037 4.49165C9.987 4.86499 10.127 5.29665 10.4887 5.65832L11.352 6.53332C11.3987 6.56832 11.4337 6.70832 11.422 6.75499L11.177 7.82832C10.9903 8.63332 11.2937 8.99499 11.492 9.13499C11.6903 9.27499 12.122 9.46165 12.8337 9.04165L13.8837 8.42332C13.9303 8.38832 14.082 8.38832 14.1287 8.42332L15.167 9.04165C15.4937 9.23999 15.762 9.29832 15.972 9.29832C16.217 9.29832 16.392 9.20499 16.497 9.13499C16.6953 8.99499 16.9987 8.63332 16.812 7.82832L16.567 6.75499C16.5553 6.69665 16.5903 6.56832 16.637 6.53332L17.512 5.65832Z" fill="white"/>
</svg>
