<svg width="28" height="28" viewBox="0 0 28 28" fill="none" xmlns="http://www.w3.org/2000/svg">
<g clip-path="url(#clip0_1238_7367)">
<path d="M16.3327 16.6271V19.0654C15.2768 18.6921 14.1467 18.5776 13.0373 18.7315C11.928 18.8854 10.8717 19.3033 9.95735 19.95C9.04296 20.5967 8.29708 21.4534 7.78237 22.4481C7.26766 23.4428 6.99914 24.5464 6.99935 25.6664L4.66602 25.6652C4.66565 24.2406 4.99142 22.8348 5.61836 21.5555C6.2453 20.2763 7.15678 19.1575 8.28294 18.285C9.4091 17.4124 10.7201 16.8092 12.1154 16.5217C13.5107 16.2341 14.9533 16.2698 16.3327 16.6259V16.6271ZM13.9993 15.1664C10.1318 15.1664 6.99935 12.0339 6.99935 8.16641C6.99935 4.29891 10.1318 1.16641 13.9993 1.16641C17.8668 1.16641 20.9993 4.29891 20.9993 8.16641C20.9993 12.0339 17.8668 15.1664 13.9993 15.1664ZM13.9993 12.8331C16.5777 12.8331 18.666 10.7447 18.666 8.16641C18.666 5.58808 16.5777 3.49975 13.9993 3.49975C11.421 3.49975 9.33268 5.58808 9.33268 8.16641C9.33268 10.7447 11.421 12.8331 13.9993 12.8331ZM20.9993 19.8331V15.7497L26.8327 20.9997L20.9993 26.2497V22.1664H17.4993V19.8331H20.9993Z" fill="white"/>
</g>
<defs>
<clipPath id="clip0_1238_7367">
<rect width="28" height="28" fill="white"/>
</clipPath>
</defs>
</svg>
