<svg width="15" height="15" viewBox="0 0 15 15" fill="none" xmlns="http://www.w3.org/2000/svg">
<path fill-rule="evenodd" clip-rule="evenodd" d="M12.6147 0.0912743C13.6906 -0.0494419 14.5773 0.837217 14.4366 1.91313C14.2309 3.4858 13.6662 6.15745 12.0692 7.87935C11.561 8.42722 10.9473 8.93343 10.3161 9.38319L10.5005 10.6742C10.5524 11.0377 10.4302 11.4044 10.1705 11.6641L8.0492 13.7854C7.3694 14.4652 6.20526 14.0772 6.0693 13.1255L5.78646 11.1456L5.78731 11.1454C5.60668 11.058 5.43919 10.9398 5.29326 10.7938L3.73403 9.2346C3.5881 9.08867 3.46984 8.92117 3.38241 8.74053L3.38228 8.74141L1.40239 8.45857C0.450662 8.32261 0.0626157 7.15847 0.742419 6.47867L2.86374 4.35735C3.1234 4.09769 3.49016 3.97544 3.85369 4.02737L5.14467 4.21179C5.59443 3.58061 6.10064 2.96683 6.64851 2.4587C8.37041 0.861697 11.0421 0.296959 12.6147 0.0912743ZM2.39235 9.30708C2.58761 9.50235 2.58761 9.81893 2.39235 10.0142L1.44954 10.957C1.25428 11.1523 0.937695 11.1523 0.742433 10.957C0.547171 10.7617 0.547171 10.4452 0.742433 10.2499L1.68524 9.30708C1.8805 9.11182 2.19709 9.11182 2.39235 9.30708ZM3.80656 10.7213C4.00182 10.9166 4.00182 11.2331 3.80656 11.4284L1.92094 13.314C1.72568 13.5093 1.4091 13.5093 1.21384 13.314C1.01858 13.1188 1.01858 12.8022 1.21384 12.6069L3.09946 10.7213C3.29472 10.526 3.6113 10.526 3.80656 10.7213ZM5.22078 12.1355C5.41604 12.3308 5.41604 12.6474 5.22078 12.8426L4.27797 13.7854C4.0827 13.9807 3.76612 13.9807 3.57086 13.7854C3.3756 13.5902 3.3756 13.2736 3.57086 13.0783L4.51367 12.1355C4.70893 11.9403 5.02551 11.9402 5.22078 12.1355ZM8.63825 5.8893C8.11755 5.3686 8.11755 4.52438 8.63825 4.00368C9.15894 3.48298 10.0032 3.48298 10.5239 4.00368C11.0446 4.52438 11.0446 5.3686 10.5239 5.8893C10.0032 6.41 9.15895 6.41 8.63825 5.8893Z" fill="white"/>
</svg>
