<svg width="25" height="24" viewBox="0 0 25 24" fill="none" xmlns="http://www.w3.org/2000/svg">
<g clip-path="url(#clip0_1211_6209)">
<path d="M11.0176 2C15.9856 2 20.0176 6.032 20.0176 11C20.0176 15.968 15.9856 20 11.0176 20C6.04958 20 2.01758 15.968 2.01758 11C2.01758 6.032 6.04958 2 11.0176 2ZM11.0176 18C14.8846 18 18.0176 14.867 18.0176 11C18.0176 7.132 14.8846 4 11.0176 4C7.14958 4 4.01758 7.132 4.01758 11C4.01758 14.867 7.14958 18 11.0176 18ZM19.5026 18.071L22.3316 20.899L20.9166 22.314L18.0886 19.485L19.5026 18.071Z" fill="white"/>
</g>
<defs>
<clipPath id="clip0_1211_6209">
<rect width="24" height="24" fill="white" transform="translate(0.0175781)"/>
</clipPath>
</defs>
</svg>
