<svg width="16" height="18" viewBox="0 0 16 18" fill="none" xmlns="http://www.w3.org/2000/svg">
<path fill-rule="evenodd" clip-rule="evenodd" d="M10.1594 15.0889C10.1702 15.3951 10.078 15.6894 9.95491 15.9301C9.69174 16.4123 9.18223 16.6797 8.60412 16.6921L7.54736 16.6773C6.98504 16.6717 6.45625 16.361 6.1818 15.8856C6.04651 15.6513 5.96126 15.3523 5.9686 15.0624C5.97947 14.8241 5.90281 14.6005 5.77911 14.3862C5.39642 13.7234 4.53181 13.4816 3.87161 13.836C3.11819 14.271 2.17293 13.9955 1.72839 13.2255L1.20268 12.3149C0.754272 11.5383 0.988274 10.5819 1.74169 10.1469C2.38256 9.75904 2.60549 8.88938 2.2228 8.22654C2.09524 8.00559 1.93996 7.82743 1.73195 7.72435C1.47722 7.58575 1.25709 7.35576 1.12566 7.12812C0.847337 6.64605 0.842672 6.03278 1.11894 5.54297L1.6384 4.62709C1.92122 4.1335 2.4245 3.82508 2.97372 3.83829C3.23211 3.83194 3.54462 3.91932 3.80053 4.0751C4.00049 4.20961 4.22075 4.24313 4.46336 4.25482C5.22006 4.26429 5.84441 3.63601 5.84996 2.874C5.84071 1.99556 6.54905 1.30093 7.41798 1.3081L8.45005 1.31035C9.32285 1.32421 10.0315 2.02205 10.038 2.91097C10.0599 3.67502 10.7063 4.31055 11.4604 4.3305C11.7056 4.33172 11.937 4.2785 12.1258 4.15164C12.3736 3.99073 12.6585 3.92442 12.9285 3.93816C13.4777 3.95137 13.9988 4.24866 14.294 4.72985L14.8391 5.6739C15.1251 6.16935 15.109 6.7768 14.8458 7.25905C14.7188 7.49304 14.5228 7.71333 14.2557 7.84077C14.0514 7.94085 13.8897 8.11458 13.7681 8.32762C13.4084 8.99059 13.6355 9.86821 14.2902 10.2758C15.0528 10.7193 15.3067 11.6886 14.8785 12.4447L14.3644 13.3396C13.94 14.1024 12.9843 14.3685 12.2243 13.9146C11.5616 13.5384 10.7053 13.765 10.339 14.4317C10.224 14.641 10.1428 14.8485 10.1594 15.0889ZM6.91637 7.09667C5.88779 7.69052 5.55978 9.01364 6.16667 10.0648C6.77356 11.116 8.07183 11.4734 9.10041 10.8795C10.129 10.2857 10.4751 8.97887 9.86826 7.9277C9.26136 6.87653 7.94495 6.50282 6.91637 7.09667Z" stroke="#777E90" stroke-width="1.32575"/>
</svg>
