<svg width="19" height="26" viewBox="0 0 19 26" fill="none" xmlns="http://www.w3.org/2000/svg">
<path d="M4.09975 18.0949C4.59441 19.4817 5.71453 20.5539 7.12167 20.9878L9.2927 21.6823V21.6825C10.5395 22.04 11.8389 22.18 13.1333 22.0964C13.7337 22.0747 14.3125 22.3227 14.7109 22.7724C15.3408 23.5598 16.1743 24.1594 17.1212 24.5064L18.0411 25.0031C18.256 25.161 18.5495 25.1586 18.762 24.9972C18.9743 24.8356 19.0554 24.5537 18.961 24.3042L18.3493 22.7678H18.3491C17.9355 21.7527 17.1534 20.9311 16.1598 20.468L15.8608 20.3163C17.0569 19.5876 17.9895 18.4968 18.524 17.2024L18.8645 16.379H18.8643C18.9649 16.134 18.9002 15.8521 18.7029 15.6755C18.5056 15.4989 18.2183 15.4656 17.9858 15.5925L16.5232 16.3974C15.5175 16.9159 14.768 17.8233 14.4487 18.9087C14.3031 19.4699 13.8951 19.9259 13.3539 20.1331C12.8124 20.3403 12.2044 20.2731 11.7212 19.9528L10.4011 19.0744C10.1077 18.8855 9.86479 18.6282 9.6929 18.3247C9.49536 17.9668 9.40522 17.5596 9.43294 17.1518C9.46066 16.744 9.60522 16.3529 9.84916 16.0249L10.8565 14.6818C11.7364 13.5085 12.7787 12.4663 13.952 11.5863L14.8719 10.8919V10.8917C15.4325 10.4705 15.8711 9.90771 16.1427 9.26109C16.4142 8.61448 16.5091 7.9073 16.4173 7.21207C16.4019 7.09379 16.3277 6.99113 16.2202 6.93917C16.1126 6.88722 15.9863 6.89297 15.8838 6.95458L15.4009 7.2443C15.2366 7.34902 15.0826 7.46914 14.9409 7.60302L14.113 8.3297C14.0522 8.38534 13.9775 8.42333 13.8968 8.44017L13.6713 8.49068H13.6715C13.4701 8.55146 13.2532 8.46769 13.1448 8.28761C13.0364 8.10752 13.0637 7.87693 13.2115 7.72725L13.607 7.2673C13.8951 6.92603 14.2312 6.62851 14.6051 6.38413L16.1322 5.38601L16.514 5.14228L16.6244 5.06877H16.6242C17.3108 4.62463 17.8152 3.94906 18.0456 3.16446L18.6573 1.0809C18.7456 0.832847 18.7078 0.557495 18.5558 0.3425C18.4039 0.127504 18.1571 -0.000204761 17.8938 2.46445e-07C17.7675 0.000410893 17.6431 0.0303896 17.5304 0.0874753L13.101 2.29977C11.26 3.22031 9.57954 4.4318 8.1243 5.88741L6.50521 7.50649C6.05142 8.02086 5.47113 8.40774 4.82189 8.62867L4.24692 8.81266C3.41122 9.0837 2.62168 9.48082 1.90568 9.99024C1.25207 10.4549 0.665434 11.0075 0.162587 11.6323C0.0453386 11.7828 -0.0117431 11.9715 0.00201348 12.1619C0.0155655 12.3522 0.099345 12.5308 0.236921 12.6631C0.374292 12.7955 0.556013 12.8723 0.74677 12.8787H2.27387H2.27366C2.63197 12.8748 2.97531 13.0224 3.2188 13.2853C3.46253 13.5481 3.58348 13.9017 3.55247 14.2586C3.48738 15.5604 3.67321 16.8628 4.09969 18.0947L4.09975 18.0949Z" fill="white"/>
<path d="M12.5179 13.9091L11.6625 14.9762V14.976C11.5259 15.147 11.5077 15.3842 11.6165 15.5739L12.1362 16.4938C12.1678 16.5495 12.1939 16.608 12.2144 16.6688L12.2559 16.7975H12.2557C12.3222 16.9887 12.498 17.1205 12.7003 17.1306C12.9025 17.1406 13.0906 17.0271 13.1756 16.8435L13.3321 16.4848C13.5752 15.9322 13.5752 15.3031 13.3321 14.7508L12.9916 13.9688C12.9479 13.884 12.8651 13.8263 12.7705 13.8142C12.6758 13.8023 12.5813 13.8378 12.5179 13.9091Z" fill="white"/>
</svg>
