<svg width="11" height="11" viewBox="0 0 11 11" fill="none" xmlns="http://www.w3.org/2000/svg">
<path d="M7.56229 6.875C7.33303 6.87463 7.10604 6.92048 6.8949 7.00981C6.68375 7.09914 6.49278 7.23012 6.33339 7.39492L4.35253 6.12304C4.50716 5.72207 4.50716 5.27792 4.35253 4.87695L6.33339 3.60508C6.61205 3.89007 6.98111 4.06934 7.37738 4.11223C7.77366 4.15511 8.17252 4.05893 8.5057 3.84015C8.83888 3.62136 9.08566 3.29358 9.2038 2.9129C9.32195 2.53223 9.30411 2.12232 9.15335 1.75334C9.00258 1.38437 8.72826 1.07926 8.37734 0.890245C8.02642 0.70123 7.62071 0.640058 7.22966 0.717198C6.8386 0.794339 6.48652 1.005 6.23366 1.31312C5.9808 1.62123 5.8429 2.00766 5.84354 2.40625C5.84424 2.61924 5.88354 2.83033 5.95956 3.02929L3.9787 4.30117C3.74022 4.05616 3.43408 3.88785 3.09943 3.81775C2.76478 3.74766 2.41682 3.77897 2.10006 3.90768C1.7833 4.03639 1.51213 4.25665 1.32121 4.54029C1.1303 4.82394 1.02832 5.15808 1.02832 5.5C1.02832 5.84191 1.1303 6.17605 1.32121 6.4597C1.51213 6.74335 1.7833 6.96361 2.10006 7.09232C2.41682 7.22103 2.76478 7.25234 3.09943 7.18224C3.43408 7.11215 3.74022 6.94383 3.9787 6.69882L5.95956 7.9707C5.88354 8.16966 5.84424 8.38076 5.84354 8.59375C5.84354 8.93368 5.94435 9.26599 6.13321 9.54863C6.32206 9.83128 6.5905 10.0516 6.90456 10.1817C7.21862 10.3118 7.5642 10.3458 7.89761 10.2795C8.23101 10.2132 8.53726 10.0495 8.77763 9.80909C9.01801 9.56872 9.1817 9.26246 9.24802 8.92906C9.31434 8.59565 9.2803 8.25007 9.15021 7.93601C9.02012 7.62195 8.79983 7.35352 8.51718 7.16466C8.23453 6.9758 7.90223 6.875 7.56229 6.875Z" fill="white"/>
</svg>
