<svg width="15" height="14" viewBox="0 0 15 14" fill="none" xmlns="http://www.w3.org/2000/svg">
<path opacity="0.3" d="M6.35841 1.16663C6.68058 1.16663 6.94175 1.42779 6.94175 1.74996C6.94175 2.07213 6.68058 2.33329 6.35841 2.33329H3.50008C2.85575 2.33329 2.33341 2.85563 2.33341 3.49996V10.5C2.33341 11.1443 2.85575 11.6666 3.50008 11.6666H10.5001C11.1444 11.6666 11.6667 11.1443 11.6667 10.5V9.33329C11.6667 9.01113 11.9279 8.74996 12.2501 8.74996C12.5722 8.74996 12.8334 9.01113 12.8334 9.33329V10.5C12.8334 11.7886 11.7887 12.8333 10.5001 12.8333H3.50008C2.21142 12.8333 1.16675 11.7886 1.16675 10.5V3.49996C1.16675 2.21129 2.21142 1.16663 3.50008 1.16663H6.35841Z" fill="white"/>
<path d="M4.08602 8.10677C4.08602 7.66185 3.99068 5.90601 5.37575 4.513C6.30796 3.57549 7.7031 3.41288 9.37154 3.33873V1.0721C9.37154 0.6925 9.82186 0.493016 10.103 0.748076L13.8994 4.19229C14.0895 4.36472 14.091 4.66294 13.9027 4.83731L10.1063 8.35321C9.82624 8.61259 9.37154 8.41395 9.37154 8.03221V5.77942C8.31221 5.80856 7.55763 5.87594 6.87206 6.09405C5.54698 6.5156 4.76069 8.32326 4.54865 8.87388C4.51209 8.96884 4.42152 9.03368 4.31977 9.03368C4.18921 9.03368 4.08341 8.92789 4.08382 8.79733C4.08458 8.55698 4.08602 8.28069 4.08602 8.10677Z" fill="white"/>
</svg>
