<svg width="21" height="20" viewBox="0 0 21 20" fill="none" xmlns="http://www.w3.org/2000/svg">
<path fill-rule="evenodd" clip-rule="evenodd" d="M10.1926 1.0415C10.5378 1.0415 10.8176 1.32133 10.8176 1.6665V3.33317C10.8176 3.67835 10.5378 3.95817 10.1926 3.95817C9.84741 3.95817 9.56759 3.67835 9.56759 3.33317V1.6665C9.56759 1.32133 9.84741 1.0415 10.1926 1.0415ZM10.1926 16.0415C10.5378 16.0415 10.8176 16.3213 10.8176 16.6665L10.8176 18.3332C10.8176 18.6784 10.5378 18.9582 10.1926 18.9582C9.84741 18.9582 9.56759 18.6783 9.56759 18.3332L9.56759 16.6665C9.56759 16.3213 9.84741 16.0415 10.1926 16.0415ZM10.1926 5.20817C7.54622 5.20817 5.40092 7.35347 5.40092 9.99984C5.40092 12.6462 7.54622 14.7915 10.1926 14.7915C12.839 14.7915 14.9843 12.6462 14.9843 9.99984C14.9843 7.35347 12.839 5.20817 10.1926 5.20817ZM1.85925 9.37484C1.51407 9.37484 1.23425 9.65466 1.23425 9.99984C1.23425 10.345 1.51407 10.6248 1.85925 10.6248H3.52592C3.87109 10.6248 4.15092 10.345 4.15092 9.99984C4.15092 9.65466 3.87109 9.37484 3.52592 9.37484H1.85925ZM16.8593 9.37484C16.5141 9.37484 16.2343 9.65466 16.2343 9.99984C16.2343 10.345 16.5141 10.6248 16.8593 10.6248H18.5259C18.8711 10.6248 19.1509 10.345 19.1509 9.99984C19.1509 9.65466 18.8711 9.37484 18.5259 9.37484H16.8593ZM3.50065 3.30747C3.74473 3.06339 4.14046 3.06339 4.38453 3.30747L5.63455 4.55751C5.87863 4.80159 5.87862 5.19732 5.63454 5.44139C5.39046 5.68547 4.99474 5.68547 4.75066 5.44139L3.50064 4.19135C3.25657 3.94727 3.25657 3.55154 3.50065 3.30747ZM14.7506 14.5575C14.9947 14.3134 15.3904 14.3134 15.6345 14.5575L16.8845 15.8075C17.1286 16.0516 17.1286 16.4473 16.8845 16.6914C16.6405 16.9354 16.2447 16.9354 16.0006 16.6914L14.7506 15.4414C14.5066 15.1973 14.5066 14.8016 14.7506 14.5575ZM3.50064 15.8079C3.25657 16.052 3.25657 16.4477 3.50064 16.6918C3.74472 16.9359 4.14045 16.9359 4.38453 16.6918L5.63453 15.4418C5.87861 15.1977 5.87861 14.802 5.63453 14.5579C5.39045 14.3138 4.99472 14.3138 4.75064 14.5579L3.50064 15.8079ZM14.7506 4.5579C14.5066 4.80197 14.5066 5.1977 14.7506 5.44178C14.9947 5.68586 15.3904 5.68586 15.6345 5.44178L16.8845 4.19178C17.1286 3.9477 17.1286 3.55197 16.8845 3.3079C16.6405 3.06382 16.2447 3.06382 16.0006 3.3079L14.7506 4.5579Z" fill="white"/>
</svg>
