<svg width="12" height="12" viewBox="0 0 12 12" fill="none" xmlns="http://www.w3.org/2000/svg">
<path fill-rule="evenodd" clip-rule="evenodd" d="M6.73459 0.437144C6.31134 0.0764531 5.68883 0.0764537 5.26558 0.437144L4.38442 1.18806C4.20305 1.34262 3.97754 1.43603 3.74 1.45499L2.58595 1.54708C2.03162 1.59132 1.59144 2.0315 1.5472 2.58583L1.45511 3.73988C1.43615 3.97742 1.34274 4.20293 1.18818 4.3843L0.437266 5.26546C0.0765752 5.6887 0.0765757 6.31122 0.437266 6.73447L1.18818 7.61562C1.34274 7.79699 1.43615 8.0225 1.45511 8.26005L1.5472 9.41409C1.59144 9.96842 2.03162 10.4086 2.58595 10.4528L3.74 10.5449C3.97754 10.5639 4.20305 10.6573 4.38442 10.8119L5.26558 11.5628C5.68883 11.9235 6.31134 11.9235 6.73459 11.5628L7.61574 10.8119C7.79711 10.6573 8.02262 10.5639 8.26017 10.5449L9.41421 10.4528C9.96854 10.4086 10.4087 9.96842 10.453 9.41409L10.5451 8.26005C10.564 8.0225 10.6574 7.79699 10.812 7.61562L11.5629 6.73447C11.9236 6.31122 11.9236 5.6887 11.5629 5.26546L10.812 4.3843C10.6574 4.20293 10.564 3.97742 10.5451 3.73988L10.453 2.58583C10.4087 2.0315 9.96854 1.59132 9.41421 1.54708L8.26017 1.45499C8.02262 1.43603 7.79711 1.34262 7.61574 1.18806L6.73459 0.437144ZM8.17106 5.29045C8.38394 5.08035 8.3862 4.73745 8.1761 4.52456C7.966 4.31168 7.6231 4.30942 7.41022 4.51952L5.78354 6.12493C5.59858 6.30747 5.3018 6.30923 5.11468 6.12891L4.5853 5.61874C4.36993 5.41119 4.02708 5.41752 3.81953 5.63289C3.61198 5.84827 3.61831 6.19111 3.83368 6.39866L4.87691 7.40403C5.20131 7.71664 5.71581 7.71358 6.03646 7.39712L8.17106 5.29045Z" fill="#1DBF73"/>
</svg>
