<svg width="17" height="16" viewBox="0 0 17 16" fill="none" xmlns="http://www.w3.org/2000/svg">
<g clip-path="url(#clip0_1257_6377)">
<path d="M8.5 16C12.9183 16 16.5 12.4183 16.5 8C16.5 3.58172 12.9183 0 8.5 0C4.08172 0 0.5 3.58172 0.5 8C0.5 12.4183 4.08172 16 8.5 16Z" fill="url(#paint0_linear_1257_6377)"/>
<path d="M3.47988 8.39134C4.41508 7.87621 5.45901 7.44627 6.43441 7.01414C8.11248 6.30634 9.79721 5.61081 11.4989 4.96327C11.83 4.85294 12.4249 4.74507 12.4833 5.23574C12.4513 5.93027 12.3199 6.62074 12.2298 7.31121C12.0011 8.82961 11.7366 10.3428 11.4788 11.8562C11.3899 12.3603 10.7585 12.6213 10.3544 12.2987C9.38335 11.6427 8.40481 10.9932 7.44615 10.322C7.13215 10.0029 7.42335 9.54467 7.70375 9.31681C8.50355 8.52861 9.35175 7.85894 10.1097 7.03C10.3142 6.53627 9.71008 6.9524 9.51081 7.07994C8.41588 7.83447 7.34774 8.63507 6.19335 9.29821C5.60368 9.62281 4.91641 9.34541 4.32701 9.16421C3.79855 8.94547 3.02415 8.72501 3.47981 8.39141L3.47988 8.39134Z" fill="white"/>
</g>
<defs>
<linearGradient id="paint0_linear_1257_6377" x1="11.1673" y1="2.6672" x2="7.16733" y2="12" gradientUnits="userSpaceOnUse">
<stop stop-color="#37AEE2"/>
<stop offset="1" stop-color="#1E96C8"/>
</linearGradient>
<clipPath id="clip0_1257_6377">
<rect width="16" height="16" fill="white" transform="translate(0.5)"/>
</clipPath>
</defs>
</svg>
