<svg width="32" height="32" viewBox="0 0 32 32" fill="none" xmlns="http://www.w3.org/2000/svg">
<g clip-path="url(#clip0_1238_7373)">
<path d="M16.0007 5.33362C24.1007 5.33362 30.6673 8.91495 30.6673 13.3336V18.667C30.6673 23.0856 24.1007 26.667 16.0007 26.667C8.04465 26.667 1.56865 23.2123 1.34065 18.903L1.33398 18.667V13.3336C1.33398 8.91495 7.90065 5.33362 16.0007 5.33362ZM16.0007 21.3336C11.0407 21.3336 6.65398 19.991 4.00065 17.9336V18.667C4.00065 21.1763 9.17798 24.0003 16.0007 24.0003C22.6807 24.0003 27.7847 21.2936 27.994 18.8243L28.0007 18.667L28.002 17.9336C25.3487 19.9896 20.962 21.3336 16.0007 21.3336ZM16.0007 8.00028C9.17798 8.00028 4.00065 10.8243 4.00065 13.3336C4.00065 15.843 9.17798 18.667 16.0007 18.667C22.8233 18.667 28.0007 15.843 28.0007 13.3336C28.0007 10.8243 22.8233 8.00028 16.0007 8.00028Z" fill="white"/>
</g>
<defs>
<clipPath id="clip0_1238_7373">
<rect width="32" height="32" fill="white"/>
</clipPath>
</defs>
</svg>
