<svg width="15" height="15" viewBox="0 0 15 15" fill="none" xmlns="http://www.w3.org/2000/svg">
<g clip-path="url(#clip0_898_5393)">
<path d="M4.57317 12.9818C9.93506 12.9818 12.8678 8.53951 12.8678 4.68717C12.8678 4.561 12.8678 4.43539 12.8593 4.31035C13.4298 3.89768 13.9223 3.3867 14.3137 2.80136C13.7817 3.03723 13.2173 3.19185 12.6393 3.26003C13.2479 2.89574 13.7034 2.3227 13.921 1.6476C13.3487 1.98719 12.7227 2.22651 12.0698 2.3552C11.6303 1.88783 11.049 1.57835 10.4158 1.47465C9.78267 1.37095 9.133 1.47881 8.56733 1.78155C8.00167 2.08428 7.55154 2.565 7.28662 3.14933C7.02169 3.73366 6.95673 4.38901 7.10179 5.01398C5.94278 4.95584 4.80894 4.65463 3.77388 4.1299C2.73881 3.60517 1.82566 2.86865 1.09368 1.96815C0.720889 2.60992 0.60671 3.36964 0.774392 4.09264C0.942074 4.81563 1.37901 5.44754 1.99623 5.8597C1.53228 5.8461 1.07843 5.72094 0.673095 5.49481V5.53176C0.673279 6.20482 0.90627 6.85709 1.33255 7.37795C1.75883 7.89881 2.35216 8.25619 3.01189 8.38946C2.58271 8.50653 2.1324 8.52364 1.69557 8.43948C1.88193 9.01868 2.24462 9.52518 2.73294 9.88816C3.22126 10.2511 3.8108 10.4525 4.41914 10.464C3.81472 10.9391 3.12255 11.2903 2.38224 11.4977C1.64193 11.705 0.868003 11.7643 0.104736 11.6723C1.43791 12.5278 2.98911 12.9816 4.57317 12.9795" fill="white"/>
</g>
<defs>
<clipPath id="clip0_898_5393">
<rect width="14.209" height="14.209" fill="white" transform="translate(0.104492 0.104492)"/>
</clipPath>
</defs>
</svg>
