<svg width="15" height="15" viewBox="0 0 15 15" fill="none" xmlns="http://www.w3.org/2000/svg">
<path d="M7.5 5.95C7.19344 5.95 6.89376 6.04091 6.63887 6.21122C6.38397 6.38154 6.1853 6.62362 6.06799 6.90684C5.95067 7.19007 5.91998 7.50172 5.97978 7.80239C6.03959 8.10306 6.18721 8.37924 6.40398 8.59602C6.62076 8.81279 6.89694 8.96041 7.19761 9.02022C7.49828 9.08002 7.80993 9.04933 8.09316 8.93201C8.37638 8.8147 8.61846 8.61603 8.78878 8.36113C8.95909 8.10624 9.05 7.80656 9.05 7.5C9.05 7.29645 9.00991 7.0949 8.93201 6.90684C8.85412 6.71879 8.73995 6.54792 8.59602 6.40398C8.45208 6.26005 8.28121 6.14588 8.09316 6.06799C7.9051 5.99009 7.70355 5.95 7.5 5.95ZM13.7063 4.41875C13.703 3.9361 13.6141 3.45786 13.4438 3.00625C13.3183 2.67579 13.1242 2.37568 12.8743 2.12574C12.6243 1.8758 12.3242 1.6817 11.9938 1.55625C11.5421 1.38591 11.0639 1.29704 10.5813 1.29375C9.775 1.25 9.5375 1.25 7.5 1.25C5.4625 1.25 5.225 1.25 4.41875 1.29375C3.9361 1.29704 3.45786 1.38591 3.00625 1.55625C2.67579 1.6817 2.37568 1.8758 2.12574 2.12574C1.8758 2.37568 1.6817 2.67579 1.55625 3.00625C1.38591 3.45786 1.29704 3.9361 1.29375 4.41875C1.25 5.225 1.25 5.4625 1.25 7.5C1.25 9.5375 1.25 9.775 1.29375 10.5813C1.30048 11.0656 1.38923 11.5453 1.55625 12C1.68114 12.329 1.87508 12.6273 2.125 12.875C2.37387 13.1264 2.67462 13.3205 3.00625 13.4438C3.45786 13.6141 3.9361 13.703 4.41875 13.7063C5.225 13.75 5.4625 13.75 7.5 13.75C9.5375 13.75 9.775 13.75 10.5813 13.7063C11.0639 13.703 11.5421 13.6141 11.9938 13.4438C12.3254 13.3205 12.6261 13.1264 12.875 12.875C13.1249 12.6273 13.3189 12.329 13.4438 12C13.6139 11.5462 13.7028 11.0659 13.7063 10.5813C13.75 9.775 13.75 9.5375 13.75 7.5C13.75 5.4625 13.75 5.225 13.7063 4.41875ZM12.1187 9.41875C12.0987 9.80444 12.0164 10.1843 11.875 10.5438C11.7537 10.8436 11.5733 11.1159 11.3446 11.3446C11.1159 11.5733 10.8436 11.7537 10.5438 11.875C10.1809 12.0085 9.79892 12.0824 9.4125 12.0938C8.91875 12.0938 8.7875 12.0938 7.5 12.0938C6.2125 12.0938 6.08125 12.0938 5.5875 12.0938C5.20108 12.0824 4.81906 12.0085 4.45625 11.875C4.14631 11.7598 3.86642 11.5761 3.6375 11.3375C3.41104 11.1133 3.23615 10.8424 3.125 10.5438C2.99097 10.1813 2.91913 9.79886 2.9125 9.4125C2.9125 8.91875 2.9125 8.7875 2.9125 7.5C2.9125 6.2125 2.9125 6.08125 2.9125 5.5875C2.91913 5.20114 2.99097 4.81868 3.125 4.45625C3.24018 4.14631 3.42392 3.86642 3.6625 3.6375C3.88771 3.41226 4.15829 3.23756 4.45625 3.125C4.81906 2.9915 5.20108 2.91763 5.5875 2.90625C6.08125 2.90625 6.2125 2.90625 7.5 2.90625C8.7875 2.90625 8.91875 2.90625 9.4125 2.90625C9.79892 2.91763 10.1809 2.9915 10.5438 3.125C10.8537 3.24018 11.1336 3.42392 11.3625 3.6625C11.589 3.88672 11.7638 4.15758 11.875 4.45625C12.0085 4.81906 12.0824 5.20108 12.0938 5.5875C12.0938 6.08125 12.0938 6.2125 12.0938 7.5C12.0938 8.7875 12.1375 8.91875 12.1187 9.4125V9.41875ZM11.1188 4.76875C11.0443 4.56687 10.927 4.38353 10.7749 4.23138C10.6227 4.07924 10.4394 3.96191 10.2375 3.8875C9.96029 3.79141 9.66834 3.74487 9.375 3.75C8.8875 3.75 8.75 3.75 7.5 3.75C6.25 3.75 6.1125 3.75 5.625 3.75C5.33017 3.75288 5.03817 3.8079 4.7625 3.9125C4.56371 3.98354 4.38231 4.09607 4.23036 4.24263C4.07842 4.38918 3.95941 4.5664 3.88125 4.7625C3.79049 5.04085 3.74614 5.33225 3.75 5.625C3.75 6.1125 3.75 6.25 3.75 7.5C3.75 8.75 3.75 8.8875 3.75 9.375C3.7562 9.6695 3.81111 9.96094 3.9125 10.2375C3.98691 10.4394 4.10424 10.6227 4.25638 10.7749C4.40853 10.927 4.59187 11.0443 4.79375 11.1188C5.06042 11.2168 5.34103 11.2717 5.625 11.2812C6.1125 11.2812 6.25 11.2812 7.5 11.2812C8.75 11.2812 8.8875 11.2812 9.375 11.2812C9.66983 11.2784 9.96183 11.2234 10.2375 11.1188C10.4394 11.0443 10.6227 10.927 10.7749 10.7749C10.927 10.6227 11.0443 10.4394 11.1188 10.2375C11.2234 9.96183 11.2784 9.66983 11.2812 9.375C11.2812 8.8875 11.2812 8.75 11.2812 7.5C11.2812 6.25 11.2812 6.1125 11.2812 5.625C11.2814 5.32987 11.2263 5.03733 11.1188 4.7625V4.76875ZM7.5 9.8875C7.18676 9.8875 6.8766 9.8257 6.58729 9.70564C6.29797 9.58558 6.03519 9.40962 5.81399 9.18784C5.59279 8.96606 5.41752 8.70281 5.29821 8.41318C5.17891 8.12356 5.11793 7.81324 5.11875 7.5C5.11875 7.02753 5.25893 6.56569 5.52155 6.17293C5.78417 5.78017 6.15742 5.47416 6.59404 5.29365C7.03067 5.11313 7.51103 5.06621 7.97433 5.15884C8.43763 5.25147 8.86303 5.47948 9.19668 5.814C9.53033 6.14853 9.75722 6.57452 9.84863 7.03806C9.94005 7.50161 9.89188 7.98185 9.71021 8.418C9.52855 8.85414 9.22157 9.22659 8.82812 9.48818C8.43468 9.74976 7.97247 9.88874 7.5 9.8875ZM10 5.58125C9.86184 5.56663 9.73398 5.50139 9.64105 5.39811C9.54813 5.29483 9.49671 5.16081 9.49671 5.02187C9.49671 4.88294 9.54813 4.74892 9.64105 4.64564C9.73398 4.54236 9.86184 4.47712 10 4.4625C10.1382 4.47712 10.266 4.54236 10.3589 4.64564C10.4519 4.74892 10.5033 4.88294 10.5033 5.02187C10.5033 5.16081 10.4519 5.29483 10.3589 5.39811C10.266 5.50139 10.1382 5.56663 10 5.58125Z" fill="white"/>
</svg>
