<svg width="20" height="20" viewBox="0 0 20 20" fill="none" xmlns="http://www.w3.org/2000/svg">
<path d="M10 9.16675C9.77901 9.16675 9.56705 9.25455 9.41077 9.41083C9.25449 9.56711 9.16669 9.77907 9.16669 10.0001V13.3334C9.16669 13.5544 9.25449 13.7664 9.41077 13.9227C9.56705 14.079 9.77901 14.1667 10 14.1667C10.221 14.1667 10.433 14.079 10.5893 13.9227C10.7456 13.7664 10.8334 13.5544 10.8334 13.3334V10.0001C10.8334 9.77907 10.7456 9.56711 10.5893 9.41083C10.433 9.25455 10.221 9.16675 10 9.16675ZM10.3167 5.90008C10.1138 5.81673 9.88624 5.81673 9.68336 5.90008C9.58106 5.93974 9.48761 5.99921 9.40836 6.07508C9.33475 6.15608 9.27556 6.24909 9.23336 6.35008C9.18671 6.44898 9.16387 6.55743 9.16669 6.66675C9.16606 6.77642 9.18708 6.88514 9.22855 6.98667C9.27002 7.0882 9.33112 7.18055 9.40836 7.25842C9.48936 7.33202 9.58237 7.39121 9.68336 7.43341C9.80961 7.48528 9.94666 7.50535 10.0825 7.49184C10.2183 7.47834 10.3487 7.43168 10.4623 7.35597C10.5758 7.28026 10.6691 7.17782 10.7338 7.05764C10.7985 6.93746 10.8327 6.80323 10.8334 6.66675C10.8303 6.44611 10.744 6.23478 10.5917 6.07508C10.5124 5.99921 10.419 5.93974 10.3167 5.90008ZM10 1.66675C8.35185 1.66675 6.74068 2.15549 5.37027 3.07117C3.99986 3.98685 2.93176 5.28834 2.30103 6.81105C1.6703 8.33377 1.50527 10.0093 1.82681 11.6258C2.14836 13.2423 2.94203 14.7272 4.10747 15.8926C5.27291 17.0581 6.75776 17.8517 8.37427 18.1733C9.99078 18.4948 11.6663 18.3298 13.1891 17.6991C14.7118 17.0683 16.0133 16.0002 16.9289 14.6298C17.8446 13.2594 18.3334 11.6483 18.3334 10.0001C18.3334 8.90573 18.1178 7.8221 17.699 6.81105C17.2802 5.80001 16.6664 4.88135 15.8926 4.10752C15.1188 3.3337 14.2001 2.71987 13.1891 2.30109C12.178 1.8823 11.0944 1.66675 10 1.66675ZM10 16.6667C8.68148 16.6667 7.39255 16.2758 6.29622 15.5432C5.19989 14.8107 4.34541 13.7695 3.84083 12.5513C3.33624 11.3331 3.20422 9.99269 3.46146 8.69948C3.71869 7.40627 4.35363 6.21839 5.28598 5.28604C6.21833 4.35369 7.40622 3.71875 8.69942 3.46151C9.99263 3.20428 11.3331 3.3363 12.5512 3.84088C13.7694 4.34547 14.8106 5.19995 15.5432 6.29628C16.2757 7.39261 16.6667 8.68154 16.6667 10.0001C16.6667 11.7682 15.9643 13.4639 14.7141 14.7141C13.4638 15.9644 11.7681 16.6667 10 16.6667Z" fill="#808191"/>
</svg>
