<svg width="17" height="16" viewBox="0 0 17 16" fill="none" xmlns="http://www.w3.org/2000/svg">
<path fill-rule="evenodd" clip-rule="evenodd" d="M9.32801 1.75459C8.89278 1.24709 8.10754 1.24709 7.67231 1.75459L7.61116 1.82591C7.3078 2.17964 6.81321 2.30154 6.38021 2.12931L6.29292 2.09458C5.67169 1.84747 4.9764 2.21239 4.82687 2.86402L4.80586 2.95559C4.70164 3.40978 4.32035 3.74757 3.85691 3.79629L3.76348 3.80611C3.09857 3.876 2.65251 4.52224 2.82294 5.16872L2.84689 5.25956C2.96568 5.71016 2.78504 6.18645 2.39732 6.44496L2.31916 6.49707C1.76289 6.86796 1.66824 7.64747 2.11959 8.1407L2.18301 8.21001C2.4976 8.55379 2.559 9.05947 2.33582 9.46855L2.29083 9.55102C1.97064 10.1379 2.24909 10.8721 2.87795 11.0991L2.96631 11.131C3.40463 11.2892 3.694 11.7084 3.6865 12.1744L3.68498 12.2683C3.67422 12.9368 4.26198 13.4575 4.92429 13.3662L5.01736 13.3534C5.47899 13.2898 5.93004 13.5265 6.13993 13.9426L6.18224 14.0265C6.48337 14.6234 7.24579 14.8113 7.78982 14.4227L7.86627 14.3681C8.24547 14.0972 8.75486 14.0972 9.13405 14.3681L9.2105 14.4227C9.75454 14.8113 10.517 14.6234 10.8181 14.0265L10.8604 13.9426C11.0703 13.5265 11.5213 13.2898 11.983 13.3534L12.076 13.3662C12.7383 13.4575 13.3261 12.9368 13.3153 12.2683L13.3138 12.1744C13.3063 11.7084 13.5957 11.2892 14.034 11.131L14.1224 11.0991C14.7512 10.8721 15.0297 10.1379 14.7095 9.55102L14.6645 9.46855C14.4413 9.05947 14.5027 8.55379 14.8173 8.21001L14.8807 8.1407C15.3321 7.64747 15.2374 6.86796 14.6812 6.49707L14.603 6.44496C14.2153 6.18645 14.0347 5.71016 14.1534 5.25956L14.1774 5.16872C14.3478 4.52224 13.9018 3.876 13.2368 3.80611L13.1434 3.79629C12.68 3.74757 12.2987 3.40978 12.1945 2.95559L12.1735 2.86402C12.0239 2.21239 11.3286 1.84747 10.7074 2.09458L10.6201 2.12931C10.1871 2.30154 9.69252 2.17964 9.38917 1.82591L9.32801 1.75459ZM11.0622 7.21393C11.3063 6.9608 11.2991 6.55766 11.0459 6.31349C10.7928 6.06932 10.3897 6.07658 10.1455 6.32971L8.37425 8.16595C8.11047 8.4394 7.6737 8.44333 7.40504 8.17467L6.84682 7.61645C6.59813 7.36776 6.19493 7.36776 5.94623 7.61645C5.69754 7.86514 5.69754 8.26834 5.94623 8.51704L7.14632 9.71714C7.5661 10.1369 8.24856 10.1308 8.6607 9.7035L11.0622 7.21393Z" fill="white"/>
</svg>
