<svg width="32" height="32" viewBox="0 0 32 32" fill="none" xmlns="http://www.w3.org/2000/svg">
<g clip-path="url(#clip0_1238_7385)">
<path d="M21.333 5.33337C22.069 5.33337 22.6663 5.93071 22.6663 6.66671V12.2667L29.617 7.40004C29.9183 7.18937 30.3343 7.26271 30.5463 7.56537C30.6237 7.67737 30.6663 7.81071 30.6663 7.94671V24.0534C30.6663 24.4214 30.3677 24.72 29.9997 24.72C29.8623 24.72 29.729 24.6774 29.617 24.6L22.6663 19.7334V25.3334C22.6663 26.0694 22.069 26.6667 21.333 26.6667H2.66634C1.93034 26.6667 1.33301 26.0694 1.33301 25.3334V6.66671C1.33301 5.93071 1.93034 5.33337 2.66634 5.33337H21.333ZM19.9997 8.00004H3.99967V24H19.9997V8.00004ZM10.6663 10.6667H13.333V14.6667H17.333V17.3334H13.3317L13.333 21.3334H10.6663L10.665 17.3334H6.66634V14.6667H10.6663V10.6667ZM27.9997 11.788L22.6663 15.5214V16.4787L27.9997 20.212V11.7867V11.788Z" fill="white"/>
</g>
<defs>
<clipPath id="clip0_1238_7385">
<rect width="32" height="32" fill="white"/>
</clipPath>
</defs>
</svg>
