<svg width="18" height="18" viewBox="0 0 18 18" fill="none" xmlns="http://www.w3.org/2000/svg">
<path fill-rule="evenodd" clip-rule="evenodd" d="M9.33136 0.666687H4.33136C2.93245 0.666687 1.73482 1.52842 1.24033 2.75002H12.4224C11.9279 1.52842 10.7303 0.666687 9.33136 0.666687ZM17.6647 12.3334H14.3314C13.4109 12.3334 12.6647 11.5872 12.6647 10.6667C12.6647 9.74621 13.4109 9.00002 14.3314 9.00002H17.6647V12.3334ZM0.998016 4.00002H14.3314C16.1723 4.00002 17.6647 5.4924 17.6647 7.33335V7.75002H14.3314C12.7205 7.75002 11.4147 9.05586 11.4147 10.6667C11.4147 12.2775 12.7205 13.5834 14.3314 13.5834H17.6647V14C17.6647 15.841 16.1723 17.3334 14.3314 17.3334H4.33135C2.4904 17.3334 0.998016 15.841 0.998016 14V4.00002Z" fill="#808191"/>
</svg>
