<svg width="19" height="23" viewBox="0 0 19 23" fill="none" xmlns="http://www.w3.org/2000/svg">
<path d="M17.4871 19.3526C17.4655 19.0956 17.4448 18.8673 17.422 18.6554C18.4383 17.0853 19 15.23 19 13.3259C19 10.7775 18.0485 8.26583 16.3895 6.43503C16.0576 6.06864 15.8508 5.64299 15.7913 5.20354C15.7723 5.06305 15.7807 5.01362 15.7807 5.01306C15.8065 4.90589 15.8586 4.79019 15.9438 4.64895C17.0354 2.84374 16.0868 1.10838 15.4242 0.234564C15.2684 0.0289342 15.0008 -0.0517239 14.76 0.03367C14.5207 0.118308 14.3618 0.348363 14.3648 0.606081C14.3754 1.46269 13.5968 2.33461 13.3581 2.58133C13.2381 2.70516 13.0849 2.87482 12.9648 3.09049C12.9049 3.19841 12.8746 3.32565 12.8697 3.48982C12.8695 3.49474 12.869 3.50951 12.8338 3.52182C12.5936 3.43774 12.3848 3.41654 12.1971 3.45592C11.9228 3.51348 11.6487 3.63031 11.3586 3.81378C11.081 3.9895 10.4724 4.26367 9.51393 4.12128C9.26624 4.08455 9.02707 4.19418 8.88892 4.40738C8.75001 4.62191 8.74518 4.89116 8.87684 5.11043C9.24652 5.72525 10.1064 6.74143 11.7047 6.6392C11.9159 6.62575 12.1088 6.61515 12.2847 6.60701C12.832 6.58334 13.3484 6.8666 13.623 7.35077C13.6874 7.464 13.7391 7.55015 13.7709 7.60317L13.7949 7.64331C14.8247 9.42011 15.0445 10.7929 14.4303 11.613C14.1082 12.0433 13.5383 12.2658 12.9432 12.194C8.99439 11.718 7.02586 8.03167 6.20371 5.87712C6.06015 5.50051 5.76169 5.2144 5.38476 5.09191C5.00931 4.96997 4.60446 5.02697 4.2746 5.2485C1.65111 7.01091 0.084225 9.90108 0.00386705 13.0671C-0.00171183 13.268 -0.00134002 13.4691 0.00554068 13.6701C0.0970336 16.3535 1.3106 18.7956 3.17725 20.5077C3.2297 20.5707 3.26521 20.6082 3.27339 20.6165C3.30742 20.6508 3.34629 20.676 3.38738 20.6957C4.88453 21.9917 6.77051 22.8307 8.82488 22.9756C9.05361 22.9917 9.28103 22.9998 9.50754 22.9998C9.52279 22.9998 9.53804 22.9987 9.55328 22.9987C9.69573 22.9979 9.8378 22.9947 9.97931 22.9877C10.0225 22.9856 10.0652 22.9813 10.1084 22.9786C10.225 22.9712 10.3412 22.9631 10.457 22.9515C10.4929 22.9479 10.5284 22.9428 10.5642 22.9389C10.6908 22.9247 10.8169 22.9087 10.9424 22.8894C10.9625 22.8862 10.9824 22.8826 11.0023 22.8794C11.6312 22.7789 12.2435 22.6117 12.8345 22.3863C13.6388 22.7929 14.5295 23 15.5041 23C16.3227 23 17.1997 22.8563 18.1306 22.5687C18.338 22.5047 18.4962 22.3399 18.5537 22.1279C18.6111 21.916 18.5583 21.692 18.4122 21.5288C18.1064 21.1857 17.5796 20.4478 17.4874 19.3528L17.4871 19.3526ZM7.5618 10.9547C7.92387 10.9547 8.21733 11.2535 8.21733 11.6222C8.21733 11.9909 7.92389 12.2898 7.5618 12.2898C7.19972 12.2898 6.90628 11.9908 6.90628 11.6222C6.90628 11.2536 7.19991 10.9547 7.5618 10.9547ZM10.3614 22.0292C9.41827 21.8268 6.81892 20.9273 5.539 17.0574C5.46685 16.8389 5.23515 16.7213 5.01944 16.7948C4.80466 16.8684 4.68936 17.1053 4.7617 17.324C5.60631 19.8775 6.99115 21.267 8.20657 22.0232C6.59041 21.8083 5.11036 21.1202 3.90942 20.0987C3.89268 20.0714 3.87371 20.0453 3.85028 20.0218C3.83764 20.0091 2.58355 18.7108 2.44092 15.2776C2.43144 15.0471 2.24492 14.8669 2.01377 14.8779C1.78728 14.8877 1.61173 15.0824 1.6214 15.3128C1.65933 16.2256 1.77351 17.0018 1.92433 17.6584C1.34378 16.5975 0.976121 15.4018 0.887242 14.1311C0.788127 12.7144 1.03024 11.3666 1.53363 10.159C1.66417 9.84564 1.93939 9.60875 2.27023 9.55974C2.29552 9.55595 2.32099 9.55273 2.34666 9.54989C2.70575 9.5107 3.06574 9.59098 3.38503 9.76272C3.96372 10.0738 4.9413 10.8204 5.8845 12.5624C5.8845 12.5624 7.35561 15.786 8.93182 16.486C9.2076 17.7734 9.95182 20.2055 11.7999 21.7132C11.3361 21.8594 10.8556 21.9664 10.3615 22.0295L10.3614 22.0292Z" fill="white"/>
</svg>
